<svg height="298.90323" viewBox="0 0 61.657897 79.084803" width="233.03775" xmlns="http://www.w3.org/2000/svg" xmlns:xlink="http://www.w3.org/1999/xlink"><linearGradient id="a" gradientUnits="userSpaceOnUse" x1="67.733323" x2="67.733323" y1="31.883125" y2="50.933122"><stop offset="0" stop-color="#91e12a"/><stop offset="1" stop-color="#7b8a49"/></linearGradient><linearGradient id="b" gradientUnits="userSpaceOnUse" x1="84.666658" x2="84.666658" y1="23.416458" y2="65.749786"><stop offset="0" stop-color="#2263ea"/><stop offset="1" stop-color="#33c0f4"/></linearGradient><linearGradient id="c" gradientUnits="userSpaceOnUse" x1="50.799992" x2="50.799992" y1="23.416458" y2="65.749786"><stop offset="0" stop-color="#e12400"/><stop offset="1" stop-color="#febe00"/></linearGradient><linearGradient id="d" gradientUnits="userSpaceOnUse" x1="52.91666" x2="52.91666" y1="40.349789" y2="65.749786"><stop offset="0" stop-color="#f6d339"/><stop offset="1" stop-color="#ffd55f"/></linearGradient><linearGradient id="e" gradientUnits="userSpaceOnUse" x1="82.549988" x2="82.549988" y1="40.349789" y2="65.749786"><stop offset="0" stop-color="#99def2"/><stop offset="1" stop-color="#84d2f8"/></linearGradient><g transform="translate(-36.904387 -20.770627)"><text font-family="Aria" font-size="33.8667" letter-spacing="-1.03188" stroke-width=".264583" x="38.161156" y="90.082375"><tspan font-family="Arial" font-weight="bold" letter-spacing="-.978958" stroke-width=".264583" x="38.161156" y="90.082375">gpu</tspan></text><path d="m61.383325 40.34979 6.35-8.466666 6.34999 8.466666-6.34999 10.583331z" fill="url(#a)"/><path d="m50.799994 23.41646-8.466667 42.333327 19.049997-25.399997z" fill="url(#c)"/><path d="m93.133323 65.749787-19.049999-25.399997 10.583329-16.93333z" fill="url(#b)"/><path d="m42.333327 65.749787 19.049997-25.399997 6.35 10.583331-8.466666 14.816666z" fill="url(#d)"/><path d="m67.733324 50.933121 6.349998-10.583331 19.049999 25.399997h-16.933333z" fill="url(#e)"/></g></svg>